<svg xmlns="http://www.w3.org/2000/svg" xmlns:xlink="http://www.w3.org/1999/xlink" width="188.708" height="53.84" viewBox="0 0 188.708 53.84">
  <defs>
    <clipPath id="clip-path">
      <rect id="Rectangle_719" data-name="Rectangle 719" width="188.708" height="53.84" fill="none"/>
    </clipPath>
  </defs>
  <g id="Group_1574" data-name="Group 1574" transform="translate(-814 -3113.591)">
    <g id="Group_1559" data-name="Group 1559">
      <rect id="Rectangle_737" data-name="Rectangle 737" width="141" height="53" rx="8" transform="translate(814 3114)" fill="#fff"/>
    </g>
    <g id="Group_1560" data-name="Group 1560" transform="translate(814 3113.591)">
      <g id="Group_1525" data-name="Group 1525">
        <g id="Group_1524" data-name="Group 1524" clip-path="url(#clip-path)">
          <path id="Path_680" data-name="Path 680" d="M433.12,132.957a14.141,14.141,0,0,1,2.136-.147,3.617,3.617,0,0,1,2.293.557,1.8,1.8,0,0,1,.653,1.483,1.882,1.882,0,0,1-1.252,1.747v.032a1.789,1.789,0,0,1,.947,1.326c.221.8.442,1.725.578,2h-1.641a8.861,8.861,0,0,1-.495-1.652c-.189-.884-.494-1.125-1.147-1.136h-.484v2.788H433.12Zm1.589,3.051h.631c.8,0,1.273-.4,1.273-1.021,0-.652-.442-.978-1.179-.989a3.981,3.981,0,0,0-.726.053Z" transform="translate(-283.085 -86.804)" fill="#005f84"/>
          <path id="Path_681" data-name="Path 681" d="M452.085,138.232l-.505,1.82h-1.662l2.167-7.091h2.1l2.2,7.091h-1.726l-.547-1.82Zm1.8-1.2-.442-1.5c-.126-.421-.253-.947-.357-1.368h-.021c-.105.421-.211.957-.326,1.368l-.421,1.5Z" transform="translate(-294.064 -86.903)" fill="#005f84"/>
          <path id="Path_682" data-name="Path 682" d="M469.168,134.309h-1.9v-1.346h5.45v1.346h-1.936v5.744h-1.609Z" transform="translate(-305.401 -86.903)" fill="#005f84"/>
          <rect id="Rectangle_718" data-name="Rectangle 718" width="1.609" height="7.091" transform="translate(168.165 46.059)" fill="#005f84"/>
          <path id="Path_683" data-name="Path 683" d="M494.116,140.053v-7.091h1.873l1.473,2.6a20.644,20.644,0,0,1,1.157,2.43h.031a26.382,26.382,0,0,1-.136-2.956v-2.073h1.473v7.091H498.3l-1.515-2.736a26.319,26.319,0,0,1-1.231-2.5l-.032.01c.042.936.063,1.936.063,3.093v2.136Z" transform="translate(-322.952 -86.903)" fill="#005f84"/>
          <path id="Path_684" data-name="Path 684" d="M520.384,139.587a7.945,7.945,0,0,1-2.367.4,3.952,3.952,0,0,1-2.883-.957,3.431,3.431,0,0,1-1-2.577c.011-2.357,1.725-3.7,4.051-3.7a4.886,4.886,0,0,1,1.967.347l-.337,1.283a3.934,3.934,0,0,0-1.652-.3,2.31,2.31,0,1,0,.673,4.513V137.1h-1.094v-1.252h2.641Z" transform="translate(-336.036 -86.764)" fill="#005f84"/>
        </g>
      </g>
      <g id="Group_1527" data-name="Group 1527">
        <g id="Group_1526" data-name="Group 1526" clip-path="url(#clip-path)">
          <path id="Path_685" data-name="Path 685" d="M133.586.492H8.513A7.867,7.867,0,0,0,.492,8.2v38.09a7.869,7.869,0,0,0,8.021,7.7H133.586a7.869,7.869,0,0,0,8.021-7.7V8.2A7.867,7.867,0,0,0,133.586.492Z" transform="translate(-0.322 -0.322)" fill="none" stroke="#005d83" stroke-width="0.985"/>
          <path id="Path_686" data-name="Path 686" d="M139.109,53.967h84.957a7.934,7.934,0,0,0,8.142-7.711V8.129a7.934,7.934,0,0,0-8.142-7.71H139.109" transform="translate(-90.921 -0.274)" fill="#005f84"/>
          <path id="Path_687" data-name="Path 687" d="M61.554,94.12H44.137L43.506,96.2h4.64l.887,2.873h7.63l.882-2.873h4.642Z" transform="translate(-28.435 -61.516)" fill="#005d83"/>
          <path id="Path_688" data-name="Path 688" d="M52.052,54.627a4.112,4.112,0,0,0,.915,5.748L57.135,63.4a1.034,1.034,0,0,1,.229,1.441l.629.454,2.2-3.039a4.115,4.115,0,0,0-.917-5.748l-4.167-3.03a1.027,1.027,0,0,1-.414-.671,1.476,1.476,0,0,1-.011-.165,1.008,1.008,0,0,1,.2-.6v0l-.626-.454s-2.2,3.039-2.2,3.039" transform="translate(-33.507 -33.718)" fill="#005d83"/>
          <path id="Path_689" data-name="Path 689" d="M58.635,16.514A5.925,5.925,0,0,0,57.5,20.007a6.123,6.123,0,0,0,.076.951,5.935,5.935,0,0,0,2.392,3.895L65.2,28.647a3.179,3.179,0,0,1,1.283,2.087,3.262,3.262,0,0,1,.04.508,3.177,3.177,0,0,1-.61,1.873l.5.365,4.129-5.706a5.969,5.969,0,0,0-1.329-8.339l-6.326-4.6a1.845,1.845,0,0,1-.409-2.573l-.5-.363Z" transform="translate(-37.579 -7.78)" fill="#005d83"/>
          <path id="Path_690" data-name="Path 690" d="M29.889,113.442h4.772a3.722,3.722,0,0,1,2.688.908,2.36,2.36,0,0,1,.7,1.748v.03a2.393,2.393,0,0,1-1.351,2.217,2.511,2.511,0,0,1,1.923,2.525v.029c0,1.879-1.527,2.819-3.846,2.819H29.889Zm4.288,4.154c1,0,1.63-.324,1.63-1.087v-.028c0-.677-.528-1.057-1.484-1.057H32.092V117.6Zm.6,4.14c1,0,1.6-.352,1.6-1.114v-.03c0-.69-.513-1.115-1.673-1.115H32.092v2.26Z" transform="translate(-19.535 -74.145)" fill="#005d83"/>
          <path id="Path_691" data-name="Path 691" d="M57.947,113.442h4.771a3.716,3.716,0,0,1,2.688.908,2.366,2.366,0,0,1,.7,1.748v.03a2.39,2.39,0,0,1-1.351,2.217,2.513,2.513,0,0,1,1.923,2.525v.029c0,1.879-1.526,2.819-3.847,2.819H57.947Zm4.288,4.154c1,0,1.63-.324,1.63-1.087v-.028c0-.677-.528-1.057-1.484-1.057H60.149V117.6Zm.6,4.14c1,0,1.6-.352,1.6-1.114v-.03c0-.69-.515-1.115-1.675-1.115H60.149v2.26Z" transform="translate(-37.874 -74.145)" fill="#005d83"/>
          <path id="Path_692" data-name="Path 692" d="M86.009,113.442h4.772a3.726,3.726,0,0,1,2.688.908,2.368,2.368,0,0,1,.7,1.748v.03a2.39,2.39,0,0,1-1.351,2.217,2.513,2.513,0,0,1,1.924,2.525v.029c0,1.879-1.527,2.819-3.846,2.819h-4.89ZM90.3,117.6c1,0,1.631-.324,1.631-1.087v-.028c0-.677-.529-1.057-1.484-1.057H88.211V117.6Zm.6,4.14c1,0,1.6-.352,1.6-1.114v-.03c0-.69-.515-1.115-1.675-1.115H88.211v2.26Z" transform="translate(-56.215 -74.145)" fill="#005d83"/>
          <path id="Path_693" data-name="Path 693" d="M166.012,47.461h1.812l3.828,9H169.6l-.816-2H165l-.817,2h-2Zm2.067,5.257-1.187-2.9-1.186,2.9Z" transform="translate(-106.003 -31.02)" fill="#fff"/>
          <path id="Path_694" data-name="Path 694" d="M188.6,51.848v-.026a4.54,4.54,0,0,1,4.657-4.619,4.608,4.608,0,0,1,3.522,1.378l-1.251,1.442a3.3,3.3,0,0,0-2.284-1.008,2.646,2.646,0,0,0-2.59,2.782v.025a2.653,2.653,0,0,0,2.59,2.807,3.222,3.222,0,0,0,2.348-1.046l1.251,1.263a4.565,4.565,0,0,1-3.662,1.6,4.509,4.509,0,0,1-4.581-4.594" transform="translate(-123.265 -30.852)" fill="#fff"/>
          <path id="Path_695" data-name="Path 695" d="M212.943,51.848v-.026A4.54,4.54,0,0,1,217.6,47.2a4.608,4.608,0,0,1,3.522,1.378l-1.25,1.442a3.3,3.3,0,0,0-2.284-1.008A2.646,2.646,0,0,0,215,51.8v.025a2.653,2.653,0,0,0,2.59,2.807,3.224,3.224,0,0,0,2.348-1.046l1.25,1.263a4.564,4.564,0,0,1-3.662,1.6,4.509,4.509,0,0,1-4.581-4.594" transform="translate(-139.179 -30.852)" fill="#fff"/>
          <path id="Path_696" data-name="Path 696" d="M239.169,47.645h4.083a3.559,3.559,0,0,1,2.6.906,2.8,2.8,0,0,1,.766,2.041v.026a2.774,2.774,0,0,1-1.914,2.769l2.182,3.19h-2.3l-1.914-2.858h-1.544v2.858h-1.965Zm3.956,4.338c.957,0,1.505-.51,1.505-1.263v-.025c0-.842-.587-1.276-1.544-1.276h-1.952v2.565Z" transform="translate(-156.32 -31.141)" fill="#fff"/>
          <path id="Path_697" data-name="Path 697" d="M263.7,47.645h6.737v1.748h-4.785V51.2h4.211v1.748h-4.211v1.876H270.5v1.748h-6.8Z" transform="translate(-172.354 -31.141)" fill="#fff"/>
          <path id="Path_698" data-name="Path 698" d="M286.281,47.645h3.483a4.452,4.452,0,0,1,4.746,4.44v.026a4.472,4.472,0,0,1-4.746,4.466h-3.483Zm1.965,1.774V54.8h1.519a2.545,2.545,0,0,0,2.692-2.667v-.026a2.565,2.565,0,0,0-2.692-2.692Z" transform="translate(-187.112 -31.141)" fill="#fff"/>
          <rect id="Rectangle_720" data-name="Rectangle 720" width="1.965" height="8.932" transform="translate(108.509 16.504)" fill="#fff"/>
          <path id="Path_699" data-name="Path 699" d="M324.139,49.457h-2.718V47.645h7.4v1.812H326.1v7.12h-1.965Z" transform="translate(-210.08 -31.14)" fill="#fff"/>
          <path id="Path_700" data-name="Path 700" d="M345.032,47.645h6.737v1.748h-4.785V51.2h4.211v1.748h-4.211v1.876h4.849v1.748h-6.8Z" transform="translate(-225.511 -31.141)" fill="#fff"/>
          <path id="Path_701" data-name="Path 701" d="M367.612,47.645H371.1a4.452,4.452,0,0,1,4.746,4.44v.026a4.472,4.472,0,0,1-4.746,4.466h-3.483Zm1.965,1.774V54.8H371.1a2.545,2.545,0,0,0,2.692-2.667v-.026a2.565,2.565,0,0,0-2.692-2.692Z" transform="translate(-240.27 -31.141)" fill="#fff"/>
          <path id="Path_702" data-name="Path 702" d="M164.394,89.391h4.147a3.223,3.223,0,0,1,2.335.791,2.047,2.047,0,0,1,.612,1.518v.026a2.077,2.077,0,0,1-1.174,1.927,2.183,2.183,0,0,1,1.671,2.195v.025c0,1.633-1.327,2.45-3.343,2.45h-4.249Zm5.142,2.641c0-.587-.459-.919-1.289-.919h-1.939V93h1.812c.868,0,1.416-.281,1.416-.944Zm-.957,2.6h-2.271V96.6h2.335c.868,0,1.391-.306,1.391-.97v-.025c0-.6-.447-.97-1.455-.97" transform="translate(-107.447 -58.426)" fill="#fff"/>
          <path id="Path_703" data-name="Path 703" d="M188.484,94.495v-5.1h1.965v5.053c0,1.455.727,2.208,1.926,2.208s1.927-.727,1.927-2.144V89.391h1.965v5.04c0,2.705-1.518,4.032-3.917,4.032s-3.866-1.34-3.866-3.968" transform="translate(-123.192 -58.426)" fill="#fff"/>
          <path id="Path_704" data-name="Path 704" d="M212.868,96.78l1.161-1.391a4.1,4.1,0,0,0,2.667,1.085c.8,0,1.289-.319,1.289-.842v-.025c0-.5-.306-.753-1.8-1.136-1.8-.459-2.96-.957-2.96-2.73v-.026c0-1.62,1.3-2.693,3.126-2.693a5.17,5.17,0,0,1,3.318,1.136l-1.021,1.48a4.19,4.19,0,0,0-2.322-.881c-.753,0-1.148.345-1.148.778v.026c0,.587.383.778,1.927,1.174,1.812.472,2.833,1.123,2.833,2.679v.026c0,1.774-1.352,2.769-3.279,2.769a5.684,5.684,0,0,1-3.79-1.429" transform="translate(-139.13 -58.184)" fill="#fff"/>
          <rect id="Rectangle_721" data-name="Rectangle 721" width="1.965" height="8.932" transform="translate(81.879 30.965)" fill="#fff"/>
          <path id="Path_705" data-name="Path 705" d="M246.388,89.391H248.2l4.185,5.5v-5.5h1.94v8.932h-1.671l-4.326-5.678v5.678h-1.94Z" transform="translate(-161.038 -58.426)" fill="#fff"/>
          <path id="Path_706" data-name="Path 706" d="M273.388,89.391h6.737V91.14h-4.785v1.812h4.211V94.7h-4.211v1.876h4.849v1.748h-6.8Z" transform="translate(-178.685 -58.426)" fill="#fff"/>
          <path id="Path_707" data-name="Path 707" d="M294.2,96.78l1.161-1.391a4.1,4.1,0,0,0,2.667,1.085c.8,0,1.289-.319,1.289-.842v-.025c0-.5-.306-.753-1.8-1.136-1.8-.459-2.96-.957-2.96-2.73v-.026c0-1.62,1.3-2.693,3.126-2.693A5.169,5.169,0,0,1,301,90.158l-1.021,1.48a4.19,4.19,0,0,0-2.322-.881c-.753,0-1.148.345-1.148.778v.026c0,.587.383.778,1.927,1.174,1.812.472,2.832,1.123,2.832,2.679v.026c0,1.774-1.352,2.769-3.279,2.769a5.684,5.684,0,0,1-3.79-1.429" transform="translate(-192.288 -58.184)" fill="#fff"/>
          <path id="Path_708" data-name="Path 708" d="M315.306,96.78l1.161-1.391a4.1,4.1,0,0,0,2.667,1.085c.8,0,1.289-.319,1.289-.842v-.025c0-.5-.306-.753-1.8-1.136-1.8-.459-2.96-.957-2.96-2.73v-.026c0-1.62,1.3-2.693,3.126-2.693a5.17,5.17,0,0,1,3.318,1.136l-1.021,1.48a4.19,4.19,0,0,0-2.322-.881c-.753,0-1.148.345-1.148.778v.026c0,.587.383.778,1.927,1.174,1.812.472,2.832,1.123,2.832,2.679v.026c0,1.774-1.352,2.769-3.279,2.769a5.684,5.684,0,0,1-3.79-1.429" transform="translate(-206.083 -58.184)" fill="#fff"/>
          <path id="Path_709" data-name="Path 709" d="M460.763,22.752A22.26,22.26,0,1,1,438.5.492a22.26,22.26,0,0,1,22.26,22.26" transform="translate(-272.055 -0.322)" fill="#005f85" fill-rule="evenodd"/>
          <path id="Path_710" data-name="Path 710" d="M460.013,48.947h-5.839l-2.321-6.038H441.227l-2.194,6.038h-5.694l10.354-26.583h5.676ZM450.13,38.43l-3.663-9.865-3.59,9.865Z" transform="translate(-283.229 -14.617)" fill="#fff"/>
          <path id="Path_711" data-name="Path 711" d="M501.721,41.348V37h-4.38V34h4.38V29.656h2.92V34h4.391v3h-4.391v4.346Z" transform="translate(-325.06 -19.383)" fill="#fff"/>
        </g>
      </g>
    </g>
  </g>
</svg>
