<svg id="Group_1657" data-name="Group 1657" xmlns="http://www.w3.org/2000/svg" xmlns:xlink="http://www.w3.org/1999/xlink" width="85.78" height="68.925" viewBox="0 0 85.78 68.925">
  <defs>
    <clipPath id="clip-path">
      <rect id="Rectangle_780" data-name="Rectangle 780" width="85.78" height="68.925" fill="none"/>
    </clipPath>
  </defs>
  <g id="Group_1656" data-name="Group 1656" transform="translate(0 0)" clip-path="url(#clip-path)">
    <path id="Path_812" data-name="Path 812" d="M32.869,50.154q2.48,2.48,7.173,2.319t6.849-3.505L70.19,12.4,34.056,36.024q-3.236,2.157-3.451,6.9t2.265,7.227" transform="translate(2.402 0.974)" fill="#a3cd39"/>
    <path id="Path_813" data-name="Path 813" d="M42.93,0A44.874,44.874,0,0,1,55.766,2,38.453,38.453,0,0,1,68.6,8.845l-5.608,3.991a36.458,36.458,0,0,0-10.409-4.8,36.368,36.368,0,0,0-9.656-1.564,34.884,34.884,0,0,0-25.8,10.809A35.933,35.933,0,0,0,6.472,43.467a38.4,38.4,0,0,0,5.177,18.987H74.1a34.678,34.678,0,0,0,3.775-9.061,38.676,38.676,0,0,0,1.4-10.139,39.219,39.219,0,0,0-1.348-9.762,26.184,26.184,0,0,0-4.8-9.654l4.206-5.608a50.107,50.107,0,0,1,6.149,12.135,42.954,42.954,0,0,1,2.265,12.243A42.062,42.062,0,0,1,84.458,54.8a40.54,40.54,0,0,1-4.423,10.571,5.876,5.876,0,0,1-2.75,3.02,10.468,10.468,0,0,1-3.613.539H12.081a7.809,7.809,0,0,1-3.613-.917,5.867,5.867,0,0,1-2.642-2.642A51.475,51.475,0,0,1,1.51,54.849,41.654,41.654,0,0,1,0,43.469,42.406,42.406,0,0,1,3.4,26.588,43.569,43.569,0,0,1,26.284,3.451,40.865,40.865,0,0,1,42.93,0" transform="translate(0 0)" fill="#5f2f90"/>
  </g>
</svg>
