<svg id="Group_1133" data-name="Group 1133" xmlns="http://www.w3.org/2000/svg" width="35.934" height="35.934" viewBox="0 0 35.934 35.934">
  <g id="Group_181" data-name="Group 181">
    <path id="Path_195" data-name="Path 195" d="M28.354,483.891a3.463,3.463,0,1,1-3.463-3.463A3.463,3.463,0,0,1,28.354,483.891Z" transform="translate(-6.924 -465.924)" fill="#5f2f90"/>
    <path id="Path_196" data-name="Path 196" d="M30.642,475.415a3.439,3.439,0,0,0-1.972-1.972,5.758,5.758,0,0,0-1.929-.358c-1.1-.05-1.424-.061-4.2-.061s-3.1.011-4.2.061a5.754,5.754,0,0,0-1.929.358,3.442,3.442,0,0,0-1.973,1.972,5.746,5.746,0,0,0-.357,1.929c-.05,1.1-.061,1.424-.061,4.2s.011,3.1.061,4.2a5.748,5.748,0,0,0,.357,1.93,3.448,3.448,0,0,0,1.972,1.972,5.764,5.764,0,0,0,1.93.358c1.1.05,1.424.06,4.2.06s3.1-.01,4.2-.06a5.763,5.763,0,0,0,1.929-.358,3.442,3.442,0,0,0,1.972-1.972,5.761,5.761,0,0,0,.358-1.93c.05-1.1.061-1.424.061-4.2s-.011-3.1-.061-4.2A5.723,5.723,0,0,0,30.642,475.415Zm-8.1,11.463a5.335,5.335,0,1,1,5.335-5.335A5.335,5.335,0,0,1,22.543,486.878Zm5.546-9.635A1.247,1.247,0,1,1,29.336,476,1.246,1.246,0,0,1,28.089,477.243Z" transform="translate(-4.576 -463.576)" fill="#5f2f90"/>
    <path id="Path_197" data-name="Path 197" d="M17.967,459a17.967,17.967,0,1,0,17.967,17.967A17.969,17.969,0,0,0,17.967,459Zm10.255,22.22a7.577,7.577,0,0,1-.479,2.5,5.279,5.279,0,0,1-3.018,3.018,7.568,7.568,0,0,1-2.5.479c-1.1.05-1.452.063-4.254.063s-3.153-.012-4.254-.063a7.571,7.571,0,0,1-2.5-.479,5.279,5.279,0,0,1-3.017-3.018,7.572,7.572,0,0,1-.48-2.5c-.05-1.1-.062-1.452-.062-4.254s.012-3.153.062-4.254a7.578,7.578,0,0,1,.479-2.5,5.282,5.282,0,0,1,3.018-3.018,7.577,7.577,0,0,1,2.5-.479c1.1-.05,1.452-.062,4.254-.062s3.153.012,4.254.062a7.577,7.577,0,0,1,2.5.479,5.277,5.277,0,0,1,3.018,3.018,7.578,7.578,0,0,1,.479,2.5c.05,1.1.062,1.452.062,4.254S28.272,480.12,28.221,481.22Z" transform="translate(0 -459)" fill="#5f2f90"/>
  </g>
</svg>
