<svg xmlns="http://www.w3.org/2000/svg" xmlns:xlink="http://www.w3.org/1999/xlink" width="78" height="86" viewBox="0 0 78 86">
  <defs>
    <clipPath id="clip-path">
      <rect id="Rectangle_782" data-name="Rectangle 782" width="78" height="86" transform="translate(-0.489 -0.166)" fill="none"/>
    </clipPath>
  </defs>
  <g id="Group_1661" data-name="Group 1661" transform="translate(0.489 0.167)">
    <g id="Group_1660" data-name="Group 1660" transform="translate(0 0)" clip-path="url(#clip-path)">
      <path id="Path_817" data-name="Path 817" d="M51.048,69.531A10.35,10.35,0,0,1,40.6,59.049,10.348,10.348,0,0,1,51.087,48.6,10.348,10.348,0,0,1,61.53,59.087,10.346,10.346,0,0,1,51.048,69.531" transform="translate(3.189 3.817)" fill="#a3cd39"/>
      <path id="Path_818" data-name="Path 818" d="M75.721,8.414a6.208,6.208,0,0,0-4.53-1.941H64.18V0H57.168V6.472H20.494V0H13.483V6.472H6.472A6.209,6.209,0,0,0,1.941,8.414,6.208,6.208,0,0,0,0,12.944V79.82A6.209,6.209,0,0,0,1.941,84.35a6.209,6.209,0,0,0,4.531,1.941H71.191a6.635,6.635,0,0,0,6.471-6.472V12.944a6.208,6.208,0,0,0-1.941-4.53M71.191,79.82H6.472V33.438H71.191Zm0-52.853H6.472V12.945H71.191Z" transform="translate(0 0)" fill="#5f2f90"/>
      <path id="Path_819" data-name="Path 819" d="M6,26.024v0Z" transform="translate(0.471 0.943)"/>
    </g>
  </g>
</svg>
